# Blender v2.81 (sub 16) OBJ File: 'car.blend'
# www.blender.org
o Car
v 0.500000 1.000000 0.700000
v 0.500000 2.500000 0.200000
v 0.500000 -2.500000 0.600000
v 1.000000 0.000000 0.500000
v 1.000000 1.000000 0.500000
v 1.000000 -0.500000 0.200000
v 1.000000 2.000000 0.500000
v 0.500000 2.000000 0.600000
v 0.500000 -1.000000 0.700000
v 0.500000 1.000000 0.600000
v 1.000000 -0.800000 0.200000
v 0.500000 0.000000 0.600000
v 0.500000 -0.500000 0.600000
v 0.500000 -1.000000 0.600000
v 1.000000 2.500000 0.200000
v 0.500000 -1.800000 0.600000
v 1.000000 0.900000 0.200000
v 0.500000 -2.500000 0.800000
v 1.000000 -1.000000 0.500000
v 0.500000 -0.500000 0.900000
v 0.500000 -2.000000 0.200000
v 1.000000 0.000000 0.200000
v 0.500000 -0.800000 0.200000
v 0.500000 -0.500000 0.200000
v 0.500000 0.000000 0.200000
v 1.000000 -0.500000 0.500000
v 0.500000 0.900000 0.200000
v 1.000000 2.000000 0.200000
v 0.500000 2.000000 0.200000
v 0.500000 0.000000 0.800000
v 0.500000 0.000000 0.700000
v 0.500000 -0.500000 0.700000
v 0.500000 -2.000000 0.800000
v 1.000000 -1.800000 0.800000
v 1.000000 -1.800000 0.900000
v 1.000000 -2.700000 0.800000
v 1.000000 -2.800000 1.000000
v 0.500000 2.500000 0.300000
v 1.000000 2.500000 0.300000
v -0.500000 1.000000 0.700000
v -0.500000 2.500000 0.200000
v -0.500000 -2.500000 0.600000
v -1.000000 0.000000 0.500000
v -1.000000 1.000000 0.500000
v -1.000000 -0.500000 0.200000
v -1.000000 2.000000 0.500000
v -0.500000 2.000000 0.600000
v -0.500000 -1.000000 0.700000
v -0.500000 1.000000 0.600000
v -1.000000 -0.800000 0.200000
v -0.500000 0.000000 0.600000
v -0.500000 -0.500000 0.600000
v -0.500000 -1.000000 0.600000
v -1.000000 2.500000 0.200000
v -0.500000 -1.800000 0.600000
v -1.000000 0.900000 0.200000
v -0.500000 -2.500000 0.800000
v -1.000000 -1.000000 0.500000
v -0.500000 -0.500000 0.900000
v -0.500000 -2.000000 0.200000
v -1.000000 0.000000 0.200000
v -0.500000 -0.800000 0.200000
v -0.500000 -0.500000 0.200000
v -0.500000 0.000000 0.200000
v -1.000000 -0.500000 0.500000
v -0.500000 0.900000 0.200000
v -1.000000 2.000000 0.200000
v -0.500000 2.000000 0.200000
v -0.500000 0.000000 0.800000
v -0.500000 0.000000 0.700000
v -0.500000 -0.500000 0.700000
v -0.500000 -2.000000 0.800000
v -1.000000 -1.800000 0.800000
v -1.000000 -1.800000 0.900000
v -1.000000 -2.700000 0.800000
v -1.000000 -2.800000 1.000000
v -0.500000 2.500000 0.300000
v -1.000000 2.500000 0.300000
vt 0.000000 0.000000
vt 0.000000 0.000000
vt 0.000000 0.000000
vt 0.000000 0.000000
vt 0.000000 0.000000
vt 0.000000 0.000000
vt 0.000000 0.000000
vt 0.000000 0.000000
vt 0.000000 0.000000
vt 0.000000 0.000000
vt 0.000000 0.000000
vt 0.000000 0.000000
vt 0.000000 0.000000
vt 0.000000 0.000000
vt 0.000000 0.000000
vt 0.000000 0.000000
vt 0.000000 0.000000
vt 0.000000 0.000000
vt 0.000000 0.000000
vt 0.000000 0.000000
vt 0.000000 0.000000
vt 0.000000 0.000000
vt 0.000000 0.000000
vt 0.000000 0.000000
vt 0.000000 0.000000
vt 0.000000 0.000000
vt 0.000000 0.000000
vt 0.000000 0.000000
vt 0.000000 0.000000
vt 0.000000 0.000000
vt 0.000000 0.000000
vt 0.000000 0.000000
vt 0.000000 0.000000
vt 0.000000 0.000000
vt 0.000000 0.000000
vt 0.000000 0.000000
vt 0.000000 0.000000
vt 0.000000 0.000000
vt 0.000000 0.000000
vt 0.000000 0.000000
vt 0.000000 0.000000
vt 0.000000 0.000000
vt 0.000000 0.000000
vt 0.000000 0.000000
vt 0.000000 0.000000
vt 0.000000 0.000000
vt 0.000000 0.000000
vt 0.000000 0.000000
vt 0.000000 0.000000
vt 0.000000 0.000000
vt 0.000000 0.000000
vt 0.000000 0.000000
vt 0.000000 0.000000
vt 0.000000 0.000000
vt 0.000000 0.000000
vt 0.000000 0.000000
vt 0.000000 0.000000
vt 0.000000 0.000000
vt 0.000000 0.000000
vt 0.000000 0.000000
vt 0.000000 0.000000
vt 0.000000 0.000000
vt 0.000000 0.000000
vt 0.000000 0.000000
vt 0.000000 0.000000
vt 0.000000 0.000000
vt 0.000000 0.000000
vt 0.000000 0.000000
vt 0.000000 0.000000
vt 0.000000 0.000000
vt 0.000000 0.000000
vt 0.000000 0.000000
vt 0.000000 0.000000
vt 0.000000 0.000000
vt 0.000000 0.000000
vt 0.000000 0.000000
vt 0.000000 0.000000
vt 0.000000 0.000000
vn 0.0000 1.0000 0.0000
vn 1.0000 0.0000 0.0000
vn 0.0000 -1.0000 0.0000
vn 0.0000 0.0000 -1.0000
vn -0.0891 -0.8909 -0.4454
vn 0.1961 0.0000 0.9806
vn 0.0000 0.7071 0.7071
vn 0.0000 -0.3714 0.9285
vn 0.0000 0.0000 1.0000
vn 0.0000 0.9487 -0.3162
vn 0.0000 0.0995 0.9950
vn 0.0000 0.5145 0.8575
vn 0.0000 -0.8944 -0.4472
vn 0.1690 0.5071 0.8452
vn -1.0000 0.0000 0.0000
vn 0.0891 -0.8909 -0.4454
vn -0.1961 0.0000 0.9806
vn 0.0485 0.9690 -0.2423
vn 0.0000 0.3714 0.9285
vn 0.0000 -0.6247 -0.7809
vn 0.0000 -0.8321 -0.5547
vn -0.0485 0.9690 -0.2423
vn -0.1690 0.5071 0.8452
s off
f 41/1/1 38/2/1 2/3/1
f 3/4/2 21/5/2 16/6/2
f 4/7/2 6/8/2 22/9/2
f 29/10/3 7/11/3 8/12/3
f 10/13/2 29/10/2 8/12/2
f 66/14/4 25/15/4 64/16/4
f 63/17/4 25/15/4 24/18/4
f 23/19/5 19/20/5 14/21/5
f 12/22/6 5/23/6 10/13/6
f 14/21/6 26/24/6 13/25/6
f 72/26/7 16/6/7 55/27/7
f 13/25/6 4/7/6 12/22/6
f 68/28/4 27/29/4 66/14/4
f 48/30/8 20/31/8 59/32/8
f 2/3/4 28/33/4 29/10/4
f 71/34/9 31/35/9 70/36/9
f 27/29/4 22/9/4 25/15/4
f 62/37/4 24/18/4 23/19/4
f 62/37/4 21/5/4 60/38/4
f 47/39/9 10/13/9 8/12/9
f 27/29/10 5/23/10 17/40/10
f 16/6/2 23/19/2 14/21/2
f 26/24/2 11/41/2 6/8/2
f 4/7/2 17/40/2 5/23/2
f 57/42/3 3/4/3 18/43/3
f 13/25/2 9/44/2 14/21/2
f 24/18/4 11/41/4 23/19/4
f 25/15/4 6/8/4 24/18/4
f 31/35/3 69/45/3 70/36/3
f 48/30/3 14/21/3 9/44/3
f 40/46/11 30/47/11 1/48/11
f 40/46/1 10/13/1 49/49/1
f 12/22/2 1/48/2 30/47/2
f 36/50/2 35/51/2 37/52/2
f 20/31/1 71/34/1 59/32/1
f 12/22/2 32/53/2 13/25/2
f 53/54/9 16/6/9 14/21/9
f 8/12/12 77/55/12 47/39/12
f 73/56/1 35/51/1 34/57/1
f 74/58/11 37/52/11 35/51/11
f 3/4/2 33/59/2 18/43/2
f 76/60/13 36/50/13 37/52/13
f 39/61/2 28/33/2 15/62/2
f 15/62/1 38/2/1 39/61/1
f 68/28/4 2/3/4 29/10/4
f 75/63/4 34/57/4 36/50/4
f 7/11/14 38/2/14 8/12/14
f 42/64/15 55/27/15 60/38/15
f 45/65/15 43/66/15 61/67/15
f 46/68/3 68/28/3 47/39/3
f 68/28/15 49/49/15 47/39/15
f 58/69/16 62/37/16 53/54/16
f 44/70/17 51/71/17 49/49/17
f 65/72/17 53/54/17 52/73/17
f 43/66/17 52/73/17 51/71/17
f 67/74/4 41/1/4 68/28/4
f 61/67/4 66/14/4 64/16/4
f 66/14/18 44/70/18 49/49/18
f 62/37/15 55/27/15 53/54/15
f 50/75/15 65/72/15 45/65/15
f 56/76/15 43/66/15 44/70/15
f 48/30/15 52/73/15 53/54/15
f 50/75/4 63/17/4 62/37/4
f 45/65/4 64/16/4 63/17/4
f 51/71/15 40/46/15 49/49/15
f 75/63/15 74/58/15 73/56/15
f 71/34/15 51/71/15 52/73/15
f 42/64/15 72/26/15 55/27/15
f 78/77/15 67/74/15 46/68/15
f 77/55/1 54/78/1 78/77/1
f 46/68/19 77/55/19 78/77/19
f 42/64/20 21/5/20 3/4/20
f 41/1/1 77/55/1 38/2/1
f 4/7/2 26/24/2 6/8/2
f 29/10/3 28/33/3 7/11/3
f 10/13/2 27/29/2 29/10/2
f 66/14/4 27/29/4 25/15/4
f 63/17/4 64/16/4 25/15/4
f 23/19/21 11/41/21 19/20/21
f 12/22/6 4/7/6 5/23/6
f 14/21/6 19/20/6 26/24/6
f 72/26/7 33/59/7 16/6/7
f 13/25/6 26/24/6 4/7/6
f 68/28/4 29/10/4 27/29/4
f 48/30/8 9/44/8 20/31/8
f 2/3/4 15/62/4 28/33/4
f 71/34/9 32/53/9 31/35/9
f 27/29/4 17/40/4 22/9/4
f 62/37/4 63/17/4 24/18/4
f 62/37/4 23/19/4 21/5/4
f 47/39/9 49/49/9 10/13/9
f 27/29/22 10/13/22 5/23/22
f 16/6/2 21/5/2 23/19/2
f 26/24/2 19/20/2 11/41/2
f 4/7/2 22/9/2 17/40/2
f 57/42/3 42/64/3 3/4/3
f 13/25/2 20/31/2 9/44/2
f 24/18/4 6/8/4 11/41/4
f 25/15/4 22/9/4 6/8/4
f 31/35/3 30/47/3 69/45/3
f 48/30/3 53/54/3 14/21/3
f 40/46/11 69/45/11 30/47/11
f 40/46/1 1/48/1 10/13/1
f 12/22/2 10/13/2 1/48/2
f 36/50/2 34/57/2 35/51/2
f 20/31/1 32/53/1 71/34/1
f 12/22/2 31/35/2 32/53/2
f 53/54/9 55/27/9 16/6/9
f 8/12/12 38/2/12 77/55/12
f 73/56/1 74/58/1 35/51/1
f 74/58/11 76/60/11 37/52/11
f 3/4/2 16/6/2 33/59/2
f 76/60/13 75/63/13 36/50/13
f 39/61/2 7/11/2 28/33/2
f 15/62/1 2/3/1 38/2/1
f 68/28/4 41/1/4 2/3/4
f 75/63/4 73/56/4 34/57/4
f 7/11/19 39/61/19 38/2/19
f 45/65/15 65/72/15 43/66/15
f 46/68/3 67/74/3 68/28/3
f 68/28/15 66/14/15 49/49/15
f 58/69/21 50/75/21 62/37/21
f 44/70/17 43/66/17 51/71/17
f 65/72/17 58/69/17 53/54/17
f 43/66/17 65/72/17 52/73/17
f 67/74/4 54/78/4 41/1/4
f 61/67/4 56/76/4 66/14/4
f 66/14/10 56/76/10 44/70/10
f 62/37/15 60/38/15 55/27/15
f 50/75/15 58/69/15 65/72/15
f 56/76/15 61/67/15 43/66/15
f 48/30/15 59/32/15 52/73/15
f 50/75/4 45/65/4 63/17/4
f 45/65/4 61/67/4 64/16/4
f 51/71/15 69/45/15 40/46/15
f 75/63/15 76/60/15 74/58/15
f 71/34/15 70/36/15 51/71/15
f 42/64/15 57/42/15 72/26/15
f 78/77/15 54/78/15 67/74/15
f 77/55/1 41/1/1 54/78/1
f 46/68/23 47/39/23 77/55/23
f 42/64/20 60/38/20 21/5/20
