# Blender v2.81 (sub 16) OBJ File: 'car.blend'
# www.blender.org
o Wheel
v 0.500000 0.000000 -0.000000
v 0.000000 0.000000 -0.000000
v 0.500000 0.000000 -0.500000
v 0.000000 0.000000 -0.500000
v 0.500000 0.475528 -0.154508
v -0.000000 0.475528 -0.154508
v 0.500000 0.293893 0.404509
v -0.000000 0.293893 0.404509
v 0.500000 -0.293893 0.404508
v 0.000000 -0.293893 0.404508
v 0.500000 -0.475528 -0.154509
v 0.000000 -0.475528 -0.154509
vt 0.750000 0.250000
vt 0.750000 0.490000
vt 0.978254 0.324164
vt 0.250000 0.250000
vt 0.478254 0.324164
vt 0.250000 0.490000
vt 1.000000 1.000000
vt 0.800000 0.500000
vt 1.000000 0.500000
vt 0.891068 0.055836
vt 0.391068 0.055836
vt 0.800000 1.000000
vt 0.600000 0.500000
vt 0.608932 0.055836
vt 0.108932 0.055836
vt 0.600000 1.000000
vt 0.400000 0.500000
vt 0.521746 0.324164
vt 0.021746 0.324164
vt 0.400000 1.000000
vt 0.200000 0.500000
vt 0.200000 1.000000
vt 0.000000 0.500000
vt 0.000000 1.000000
vn 1.0000 0.0000 0.0000
vn -1.0000 -0.0000 0.0000
vn 0.0000 0.5878 -0.8090
vn 0.0000 0.9511 0.3090
vn 0.0000 -0.0000 1.0000
vn 0.0000 -0.9511 0.3090
vn 0.0000 -0.5878 -0.8090
s off
f 1/1/1 3/2/1 5/3/1
f 2/4/2 6/5/2 4/6/2
f 4/7/3 5/8/3 3/9/3
f 1/1/1 5/3/1 7/10/1
f 2/4/2 8/11/2 6/5/2
f 6/12/4 7/13/4 5/8/4
f 1/1/1 7/10/1 9/14/1
f 2/4/2 10/15/2 8/11/2
f 8/16/5 9/17/5 7/13/5
f 1/1/1 9/14/1 11/18/1
f 2/4/2 12/19/2 10/15/2
f 10/20/6 11/21/6 9/17/6
f 1/1/1 11/18/1 3/2/1
f 2/4/2 4/6/2 12/19/2
f 12/22/7 3/23/7 11/21/7
f 4/7/3 6/12/3 5/8/3
f 6/12/4 8/16/4 7/13/4
f 8/16/5 10/20/5 9/17/5
f 10/20/6 12/22/6 11/21/6
f 12/22/7 4/24/7 3/23/7
